<mxfile host="app.diagrams.net" modified="2022-04-13T15:43:33.354Z" agent="5.0 (Windows NT 10.0; Win64; x64) AppleWebKit/537.36 (KHTML, like Gecko) Chrome/100.0.4896.75 Safari/537.36" etag="MBAUqMiIZr1wkFdUDjV8" version="17.4.3" type="github">
  <diagram id="EoN_yHfB75YGwRavs9Iq" name="Page-1">
    <mxGraphModel dx="1422" dy="794" grid="1" gridSize="10" guides="1" tooltips="1" connect="1" arrows="1" fold="1" page="1" pageScale="1" pageWidth="827" pageHeight="1169" math="0" shadow="0">
      <root>
        <mxCell id="0" />
        <mxCell id="1" parent="0" />
        <mxCell id="67eRg82LhFTPB7yxBpyM-22" style="edgeStyle=orthogonalEdgeStyle;rounded=0;orthogonalLoop=1;jettySize=auto;html=1;exitX=0.5;exitY=1;exitDx=0;exitDy=0;entryX=0.584;entryY=-0.033;entryDx=0;entryDy=0;entryPerimeter=0;" edge="1" parent="1" source="67eRg82LhFTPB7yxBpyM-1" target="67eRg82LhFTPB7yxBpyM-2">
          <mxGeometry relative="1" as="geometry" />
        </mxCell>
        <mxCell id="67eRg82LhFTPB7yxBpyM-1" value="start" style="ellipse;whiteSpace=wrap;html=1;" vertex="1" parent="1">
          <mxGeometry x="320" y="20" width="120" height="80" as="geometry" />
        </mxCell>
        <mxCell id="67eRg82LhFTPB7yxBpyM-23" style="edgeStyle=orthogonalEdgeStyle;rounded=0;orthogonalLoop=1;jettySize=auto;html=1;exitX=0.5;exitY=1;exitDx=0;exitDy=0;entryX=0.5;entryY=0;entryDx=0;entryDy=0;" edge="1" parent="1" source="67eRg82LhFTPB7yxBpyM-2" target="67eRg82LhFTPB7yxBpyM-3">
          <mxGeometry relative="1" as="geometry" />
        </mxCell>
        <mxCell id="67eRg82LhFTPB7yxBpyM-2" value="int e_nro, s0,s1,s2,s3,s4,s5,s6,s7,s8,s9, quociente resto, cont." style="shape=internalStorage;whiteSpace=wrap;html=1;backgroundOutline=1;" vertex="1" parent="1">
          <mxGeometry x="300" y="160" width="190" height="90" as="geometry" />
        </mxCell>
        <mxCell id="67eRg82LhFTPB7yxBpyM-24" style="edgeStyle=orthogonalEdgeStyle;rounded=0;orthogonalLoop=1;jettySize=auto;html=1;exitX=0.5;exitY=1;exitDx=0;exitDy=0;entryX=0.567;entryY=-0.017;entryDx=0;entryDy=0;entryPerimeter=0;" edge="1" parent="1" source="67eRg82LhFTPB7yxBpyM-3" target="67eRg82LhFTPB7yxBpyM-5">
          <mxGeometry relative="1" as="geometry" />
        </mxCell>
        <mxCell id="67eRg82LhFTPB7yxBpyM-3" value="e_nro" style="rounded=0;whiteSpace=wrap;html=1;" vertex="1" parent="1">
          <mxGeometry x="330" y="250" width="70" height="40" as="geometry" />
        </mxCell>
        <mxCell id="67eRg82LhFTPB7yxBpyM-25" style="edgeStyle=orthogonalEdgeStyle;rounded=0;orthogonalLoop=1;jettySize=auto;html=1;exitX=0.5;exitY=1;exitDx=0;exitDy=0;" edge="1" parent="1" source="67eRg82LhFTPB7yxBpyM-5" target="67eRg82LhFTPB7yxBpyM-7">
          <mxGeometry relative="1" as="geometry" />
        </mxCell>
        <mxCell id="67eRg82LhFTPB7yxBpyM-5" value="quociente = e-ro" style="rounded=0;whiteSpace=wrap;html=1;" vertex="1" parent="1">
          <mxGeometry x="360" y="333.75" width="120" height="60" as="geometry" />
        </mxCell>
        <mxCell id="67eRg82LhFTPB7yxBpyM-26" style="edgeStyle=orthogonalEdgeStyle;rounded=0;orthogonalLoop=1;jettySize=auto;html=1;exitX=0.5;exitY=1;exitDx=0;exitDy=0;entryX=0.5;entryY=0;entryDx=0;entryDy=0;" edge="1" parent="1" source="67eRg82LhFTPB7yxBpyM-7" target="67eRg82LhFTPB7yxBpyM-8">
          <mxGeometry relative="1" as="geometry" />
        </mxCell>
        <mxCell id="67eRg82LhFTPB7yxBpyM-7" value="cont = 0" style="rounded=0;whiteSpace=wrap;html=1;" vertex="1" parent="1">
          <mxGeometry x="370" y="430" width="100" height="40" as="geometry" />
        </mxCell>
        <mxCell id="67eRg82LhFTPB7yxBpyM-27" style="edgeStyle=orthogonalEdgeStyle;rounded=0;orthogonalLoop=1;jettySize=auto;html=1;exitX=0.5;exitY=1;exitDx=0;exitDy=0;entryX=0.5;entryY=0;entryDx=0;entryDy=0;" edge="1" parent="1" source="67eRg82LhFTPB7yxBpyM-8" target="67eRg82LhFTPB7yxBpyM-9">
          <mxGeometry relative="1" as="geometry" />
        </mxCell>
        <mxCell id="67eRg82LhFTPB7yxBpyM-8" value="quociente" style="rhombus;whiteSpace=wrap;html=1;" vertex="1" parent="1">
          <mxGeometry x="380" y="520" width="80" height="80" as="geometry" />
        </mxCell>
        <mxCell id="67eRg82LhFTPB7yxBpyM-38" style="edgeStyle=orthogonalEdgeStyle;rounded=0;orthogonalLoop=1;jettySize=auto;html=1;exitX=0;exitY=0.5;exitDx=0;exitDy=0;entryX=0.5;entryY=1;entryDx=0;entryDy=0;" edge="1" parent="1" source="67eRg82LhFTPB7yxBpyM-9" target="67eRg82LhFTPB7yxBpyM-21">
          <mxGeometry relative="1" as="geometry">
            <Array as="points">
              <mxPoint x="320" y="685" />
              <mxPoint x="320" y="555" />
            </Array>
          </mxGeometry>
        </mxCell>
        <mxCell id="67eRg82LhFTPB7yxBpyM-9" value="req 1" style="shape=document;whiteSpace=wrap;html=1;boundedLbl=1;" vertex="1" parent="1">
          <mxGeometry x="375" y="655" width="90" height="60" as="geometry" />
        </mxCell>
        <mxCell id="67eRg82LhFTPB7yxBpyM-37" style="edgeStyle=orthogonalEdgeStyle;rounded=0;orthogonalLoop=1;jettySize=auto;html=1;exitX=0.5;exitY=0;exitDx=0;exitDy=0;entryX=0.5;entryY=1;entryDx=0;entryDy=0;" edge="1" parent="1" source="67eRg82LhFTPB7yxBpyM-12" target="67eRg82LhFTPB7yxBpyM-14">
          <mxGeometry relative="1" as="geometry" />
        </mxCell>
        <mxCell id="67eRg82LhFTPB7yxBpyM-135" style="edgeStyle=orthogonalEdgeStyle;rounded=0;orthogonalLoop=1;jettySize=auto;html=1;exitX=0.5;exitY=1;exitDx=0;exitDy=0;entryX=0;entryY=0.75;entryDx=0;entryDy=0;" edge="1" parent="1" source="67eRg82LhFTPB7yxBpyM-12" target="67eRg82LhFTPB7yxBpyM-21">
          <mxGeometry relative="1" as="geometry" />
        </mxCell>
        <mxCell id="67eRg82LhFTPB7yxBpyM-12" value="inp = 0" style="rhombus;whiteSpace=wrap;html=1;" vertex="1" parent="1">
          <mxGeometry x="205" y="230" width="80" height="80" as="geometry" />
        </mxCell>
        <mxCell id="67eRg82LhFTPB7yxBpyM-14" value="End" style="ellipse;whiteSpace=wrap;html=1;" vertex="1" parent="1">
          <mxGeometry x="110" y="70" width="80" height="60" as="geometry" />
        </mxCell>
        <mxCell id="67eRg82LhFTPB7yxBpyM-35" style="edgeStyle=orthogonalEdgeStyle;rounded=0;orthogonalLoop=1;jettySize=auto;html=1;exitX=1;exitY=0.25;exitDx=0;exitDy=0;entryX=0;entryY=0.5;entryDx=0;entryDy=0;" edge="1" parent="1" source="67eRg82LhFTPB7yxBpyM-15" target="67eRg82LhFTPB7yxBpyM-19">
          <mxGeometry relative="1" as="geometry" />
        </mxCell>
        <mxCell id="67eRg82LhFTPB7yxBpyM-133" style="edgeStyle=orthogonalEdgeStyle;rounded=0;orthogonalLoop=1;jettySize=auto;html=1;exitX=0;exitY=0.25;exitDx=0;exitDy=0;" edge="1" parent="1" source="67eRg82LhFTPB7yxBpyM-15">
          <mxGeometry relative="1" as="geometry">
            <mxPoint x="20" y="430" as="targetPoint" />
          </mxGeometry>
        </mxCell>
        <mxCell id="67eRg82LhFTPB7yxBpyM-15" value="S1" style="shape=document;whiteSpace=wrap;html=1;boundedLbl=1;" vertex="1" parent="1">
          <mxGeometry x="55" y="410" width="40" height="40" as="geometry" />
        </mxCell>
        <mxCell id="67eRg82LhFTPB7yxBpyM-34" style="edgeStyle=orthogonalEdgeStyle;rounded=0;orthogonalLoop=1;jettySize=auto;html=1;exitX=1;exitY=0.25;exitDx=0;exitDy=0;entryX=0;entryY=0.5;entryDx=0;entryDy=0;" edge="1" parent="1" source="67eRg82LhFTPB7yxBpyM-16" target="67eRg82LhFTPB7yxBpyM-20">
          <mxGeometry relative="1" as="geometry" />
        </mxCell>
        <mxCell id="67eRg82LhFTPB7yxBpyM-132" style="edgeStyle=orthogonalEdgeStyle;rounded=0;orthogonalLoop=1;jettySize=auto;html=1;exitX=0;exitY=0.25;exitDx=0;exitDy=0;" edge="1" parent="1" source="67eRg82LhFTPB7yxBpyM-16">
          <mxGeometry relative="1" as="geometry">
            <mxPoint x="20" y="528" as="targetPoint" />
          </mxGeometry>
        </mxCell>
        <mxCell id="67eRg82LhFTPB7yxBpyM-16" value="S2" style="shape=document;whiteSpace=wrap;html=1;boundedLbl=1;" vertex="1" parent="1">
          <mxGeometry x="50" y="520" width="40" height="30" as="geometry" />
        </mxCell>
        <mxCell id="67eRg82LhFTPB7yxBpyM-36" style="edgeStyle=orthogonalEdgeStyle;rounded=0;orthogonalLoop=1;jettySize=auto;html=1;exitX=1;exitY=0.5;exitDx=0;exitDy=0;" edge="1" parent="1" source="67eRg82LhFTPB7yxBpyM-17" target="67eRg82LhFTPB7yxBpyM-18">
          <mxGeometry relative="1" as="geometry" />
        </mxCell>
        <mxCell id="67eRg82LhFTPB7yxBpyM-17" value="S0" style="shape=document;whiteSpace=wrap;html=1;boundedLbl=1;" vertex="1" parent="1">
          <mxGeometry x="10" y="333.75" width="40" height="32.5" as="geometry" />
        </mxCell>
        <mxCell id="67eRg82LhFTPB7yxBpyM-31" style="edgeStyle=orthogonalEdgeStyle;rounded=0;orthogonalLoop=1;jettySize=auto;html=1;exitX=0.5;exitY=0;exitDx=0;exitDy=0;entryX=0;entryY=0.5;entryDx=0;entryDy=0;" edge="1" parent="1" source="67eRg82LhFTPB7yxBpyM-18" target="67eRg82LhFTPB7yxBpyM-12">
          <mxGeometry relative="1" as="geometry" />
        </mxCell>
        <mxCell id="67eRg82LhFTPB7yxBpyM-32" style="edgeStyle=orthogonalEdgeStyle;rounded=0;orthogonalLoop=1;jettySize=auto;html=1;exitX=0.5;exitY=1;exitDx=0;exitDy=0;entryX=0.5;entryY=0;entryDx=0;entryDy=0;" edge="1" parent="1" source="67eRg82LhFTPB7yxBpyM-18" target="67eRg82LhFTPB7yxBpyM-19">
          <mxGeometry relative="1" as="geometry" />
        </mxCell>
        <mxCell id="67eRg82LhFTPB7yxBpyM-18" value="TMP" style="rhombus;whiteSpace=wrap;html=1;" vertex="1" parent="1">
          <mxGeometry x="110" y="323.5" width="60" height="53" as="geometry" />
        </mxCell>
        <mxCell id="67eRg82LhFTPB7yxBpyM-33" style="edgeStyle=orthogonalEdgeStyle;rounded=0;orthogonalLoop=1;jettySize=auto;html=1;exitX=0.5;exitY=1;exitDx=0;exitDy=0;entryX=0.5;entryY=0;entryDx=0;entryDy=0;" edge="1" parent="1" source="67eRg82LhFTPB7yxBpyM-19" target="67eRg82LhFTPB7yxBpyM-20">
          <mxGeometry relative="1" as="geometry">
            <mxPoint x="150" y="510" as="targetPoint" />
          </mxGeometry>
        </mxCell>
        <mxCell id="67eRg82LhFTPB7yxBpyM-19" value="TMP" style="rhombus;whiteSpace=wrap;html=1;" vertex="1" parent="1">
          <mxGeometry x="115" y="425" width="50" height="50" as="geometry" />
        </mxCell>
        <mxCell id="67eRg82LhFTPB7yxBpyM-107" style="edgeStyle=orthogonalEdgeStyle;rounded=0;orthogonalLoop=1;jettySize=auto;html=1;exitX=0.5;exitY=1;exitDx=0;exitDy=0;entryX=0.5;entryY=0;entryDx=0;entryDy=0;" edge="1" parent="1" source="67eRg82LhFTPB7yxBpyM-20" target="67eRg82LhFTPB7yxBpyM-100">
          <mxGeometry relative="1" as="geometry" />
        </mxCell>
        <mxCell id="67eRg82LhFTPB7yxBpyM-20" value="TMP" style="rhombus;whiteSpace=wrap;html=1;" vertex="1" parent="1">
          <mxGeometry x="127.5" y="520" width="50" height="50" as="geometry" />
        </mxCell>
        <mxCell id="67eRg82LhFTPB7yxBpyM-21" value="inp =&amp;nbsp;&lt;br&gt;&lt;br&gt;cont -1" style="rounded=0;whiteSpace=wrap;html=1;" vertex="1" parent="1">
          <mxGeometry x="280" y="500" width="80" height="45" as="geometry" />
        </mxCell>
        <mxCell id="67eRg82LhFTPB7yxBpyM-39" value="resto = quociente %2" style="rounded=0;whiteSpace=wrap;html=1;" vertex="1" parent="1">
          <mxGeometry x="610" y="40" width="120" height="20" as="geometry" />
        </mxCell>
        <mxCell id="67eRg82LhFTPB7yxBpyM-40" value="quociente = quociente / 2&amp;nbsp;" style="rounded=0;whiteSpace=wrap;html=1;" vertex="1" parent="1">
          <mxGeometry x="600" y="90" width="140" height="20" as="geometry" />
        </mxCell>
        <mxCell id="67eRg82LhFTPB7yxBpyM-65" style="edgeStyle=orthogonalEdgeStyle;rounded=0;orthogonalLoop=1;jettySize=auto;html=1;exitX=0.5;exitY=1;exitDx=0;exitDy=0;" edge="1" parent="1" source="67eRg82LhFTPB7yxBpyM-41" target="67eRg82LhFTPB7yxBpyM-42">
          <mxGeometry relative="1" as="geometry" />
        </mxCell>
        <mxCell id="67eRg82LhFTPB7yxBpyM-41" value="s0 = resto&amp;nbsp;" style="rounded=0;whiteSpace=wrap;html=1;" vertex="1" parent="1">
          <mxGeometry x="670" y="150" width="80" height="30" as="geometry" />
        </mxCell>
        <mxCell id="67eRg82LhFTPB7yxBpyM-57" style="edgeStyle=orthogonalEdgeStyle;rounded=0;orthogonalLoop=1;jettySize=auto;html=1;exitX=0.5;exitY=1;exitDx=0;exitDy=0;entryX=0.5;entryY=0;entryDx=0;entryDy=0;" edge="1" parent="1" source="67eRg82LhFTPB7yxBpyM-42" target="67eRg82LhFTPB7yxBpyM-43">
          <mxGeometry relative="1" as="geometry" />
        </mxCell>
        <mxCell id="67eRg82LhFTPB7yxBpyM-42" value="s1 = resto&amp;nbsp;" style="rounded=0;whiteSpace=wrap;html=1;" vertex="1" parent="1">
          <mxGeometry x="670" y="250" width="80" height="30" as="geometry" />
        </mxCell>
        <mxCell id="67eRg82LhFTPB7yxBpyM-43" value="s2 = resto&amp;nbsp;" style="rounded=0;whiteSpace=wrap;html=1;" vertex="1" parent="1">
          <mxGeometry x="670" y="340" width="80" height="36.5" as="geometry" />
        </mxCell>
        <mxCell id="67eRg82LhFTPB7yxBpyM-80" style="edgeStyle=orthogonalEdgeStyle;rounded=0;orthogonalLoop=1;jettySize=auto;html=1;exitX=0.5;exitY=1;exitDx=0;exitDy=0;entryX=0.5;entryY=0;entryDx=0;entryDy=0;" edge="1" parent="1" source="67eRg82LhFTPB7yxBpyM-46" target="67eRg82LhFTPB7yxBpyM-47">
          <mxGeometry relative="1" as="geometry" />
        </mxCell>
        <mxCell id="67eRg82LhFTPB7yxBpyM-46" value="s3 = resto" style="rounded=0;whiteSpace=wrap;html=1;" vertex="1" parent="1">
          <mxGeometry x="680" y="435" width="70" height="35" as="geometry" />
        </mxCell>
        <mxCell id="67eRg82LhFTPB7yxBpyM-59" style="edgeStyle=orthogonalEdgeStyle;rounded=0;orthogonalLoop=1;jettySize=auto;html=1;exitX=0.5;exitY=1;exitDx=0;exitDy=0;entryX=0.6;entryY=-0.067;entryDx=0;entryDy=0;entryPerimeter=0;" edge="1" parent="1" source="67eRg82LhFTPB7yxBpyM-47" target="67eRg82LhFTPB7yxBpyM-48">
          <mxGeometry relative="1" as="geometry" />
        </mxCell>
        <mxCell id="67eRg82LhFTPB7yxBpyM-47" value="s4 = resto&amp;nbsp;" style="rounded=0;whiteSpace=wrap;html=1;" vertex="1" parent="1">
          <mxGeometry x="680" y="520" width="70" height="30" as="geometry" />
        </mxCell>
        <mxCell id="67eRg82LhFTPB7yxBpyM-61" style="edgeStyle=orthogonalEdgeStyle;rounded=0;orthogonalLoop=1;jettySize=auto;html=1;exitX=0.5;exitY=1;exitDx=0;exitDy=0;" edge="1" parent="1" source="67eRg82LhFTPB7yxBpyM-48" target="67eRg82LhFTPB7yxBpyM-49">
          <mxGeometry relative="1" as="geometry" />
        </mxCell>
        <mxCell id="67eRg82LhFTPB7yxBpyM-48" value="s5 = resto" style="rounded=0;whiteSpace=wrap;html=1;" vertex="1" parent="1">
          <mxGeometry x="670" y="620" width="80" height="30" as="geometry" />
        </mxCell>
        <mxCell id="67eRg82LhFTPB7yxBpyM-62" style="edgeStyle=orthogonalEdgeStyle;rounded=0;orthogonalLoop=1;jettySize=auto;html=1;exitX=0.5;exitY=1;exitDx=0;exitDy=0;entryX=0.75;entryY=0;entryDx=0;entryDy=0;" edge="1" parent="1" source="67eRg82LhFTPB7yxBpyM-49" target="67eRg82LhFTPB7yxBpyM-51">
          <mxGeometry relative="1" as="geometry" />
        </mxCell>
        <mxCell id="67eRg82LhFTPB7yxBpyM-49" value="s6 = resto&amp;nbsp;" style="rounded=0;whiteSpace=wrap;html=1;" vertex="1" parent="1">
          <mxGeometry x="665" y="730" width="80" height="30" as="geometry" />
        </mxCell>
        <mxCell id="67eRg82LhFTPB7yxBpyM-63" style="edgeStyle=orthogonalEdgeStyle;rounded=0;orthogonalLoop=1;jettySize=auto;html=1;exitX=0.5;exitY=1;exitDx=0;exitDy=0;entryX=0.5;entryY=0;entryDx=0;entryDy=0;" edge="1" parent="1" source="67eRg82LhFTPB7yxBpyM-51" target="67eRg82LhFTPB7yxBpyM-52">
          <mxGeometry relative="1" as="geometry" />
        </mxCell>
        <mxCell id="67eRg82LhFTPB7yxBpyM-51" value="s7 = resto" style="rounded=0;whiteSpace=wrap;html=1;" vertex="1" parent="1">
          <mxGeometry x="660" y="850" width="80" height="36" as="geometry" />
        </mxCell>
        <mxCell id="67eRg82LhFTPB7yxBpyM-64" style="edgeStyle=orthogonalEdgeStyle;rounded=0;orthogonalLoop=1;jettySize=auto;html=1;exitX=0.5;exitY=1;exitDx=0;exitDy=0;entryX=0.5;entryY=0;entryDx=0;entryDy=0;" edge="1" parent="1" source="67eRg82LhFTPB7yxBpyM-52" target="67eRg82LhFTPB7yxBpyM-53">
          <mxGeometry relative="1" as="geometry" />
        </mxCell>
        <mxCell id="67eRg82LhFTPB7yxBpyM-52" value="s8 = resto&amp;nbsp;" style="rounded=0;whiteSpace=wrap;html=1;" vertex="1" parent="1">
          <mxGeometry x="655" y="960" width="90" height="30" as="geometry" />
        </mxCell>
        <mxCell id="67eRg82LhFTPB7yxBpyM-53" value="s9 = resto&amp;nbsp;" style="rounded=0;whiteSpace=wrap;html=1;" vertex="1" parent="1">
          <mxGeometry x="650" y="1070" width="100" height="25" as="geometry" />
        </mxCell>
        <mxCell id="67eRg82LhFTPB7yxBpyM-81" style="edgeStyle=orthogonalEdgeStyle;rounded=0;orthogonalLoop=1;jettySize=auto;html=1;exitX=1;exitY=0.5;exitDx=0;exitDy=0;entryX=0;entryY=0.5;entryDx=0;entryDy=0;" edge="1" parent="1" source="67eRg82LhFTPB7yxBpyM-67" target="67eRg82LhFTPB7yxBpyM-41">
          <mxGeometry relative="1" as="geometry" />
        </mxCell>
        <mxCell id="67eRg82LhFTPB7yxBpyM-67" value="cont = 0" style="rhombus;whiteSpace=wrap;html=1;" vertex="1" parent="1">
          <mxGeometry x="570" y="150" width="50" height="60" as="geometry" />
        </mxCell>
        <mxCell id="67eRg82LhFTPB7yxBpyM-82" style="edgeStyle=orthogonalEdgeStyle;rounded=0;orthogonalLoop=1;jettySize=auto;html=1;exitX=1;exitY=0.5;exitDx=0;exitDy=0;entryX=0;entryY=0.5;entryDx=0;entryDy=0;" edge="1" parent="1" source="67eRg82LhFTPB7yxBpyM-68" target="67eRg82LhFTPB7yxBpyM-42">
          <mxGeometry relative="1" as="geometry" />
        </mxCell>
        <mxCell id="67eRg82LhFTPB7yxBpyM-68" value="cont&amp;nbsp; = 1" style="rhombus;whiteSpace=wrap;html=1;" vertex="1" parent="1">
          <mxGeometry x="560" y="240" width="60" height="60" as="geometry" />
        </mxCell>
        <mxCell id="67eRg82LhFTPB7yxBpyM-83" style="edgeStyle=orthogonalEdgeStyle;rounded=0;orthogonalLoop=1;jettySize=auto;html=1;exitX=1;exitY=0.5;exitDx=0;exitDy=0;entryX=0;entryY=0.5;entryDx=0;entryDy=0;" edge="1" parent="1" source="67eRg82LhFTPB7yxBpyM-69" target="67eRg82LhFTPB7yxBpyM-43">
          <mxGeometry relative="1" as="geometry" />
        </mxCell>
        <mxCell id="67eRg82LhFTPB7yxBpyM-69" value="cont = 2" style="rhombus;whiteSpace=wrap;html=1;" vertex="1" parent="1">
          <mxGeometry x="575" y="336.25" width="50" height="55" as="geometry" />
        </mxCell>
        <mxCell id="67eRg82LhFTPB7yxBpyM-84" style="edgeStyle=orthogonalEdgeStyle;rounded=0;orthogonalLoop=1;jettySize=auto;html=1;exitX=1;exitY=0.5;exitDx=0;exitDy=0;entryX=0;entryY=0.5;entryDx=0;entryDy=0;" edge="1" parent="1" source="67eRg82LhFTPB7yxBpyM-70" target="67eRg82LhFTPB7yxBpyM-46">
          <mxGeometry relative="1" as="geometry" />
        </mxCell>
        <mxCell id="67eRg82LhFTPB7yxBpyM-70" value="cont = 3" style="rhombus;whiteSpace=wrap;html=1;" vertex="1" parent="1">
          <mxGeometry x="575" y="435" width="50" height="45" as="geometry" />
        </mxCell>
        <mxCell id="67eRg82LhFTPB7yxBpyM-85" style="edgeStyle=orthogonalEdgeStyle;rounded=0;orthogonalLoop=1;jettySize=auto;html=1;exitX=1;exitY=0.5;exitDx=0;exitDy=0;entryX=0;entryY=0.25;entryDx=0;entryDy=0;" edge="1" parent="1" source="67eRg82LhFTPB7yxBpyM-71" target="67eRg82LhFTPB7yxBpyM-47">
          <mxGeometry relative="1" as="geometry" />
        </mxCell>
        <mxCell id="67eRg82LhFTPB7yxBpyM-71" value="cont = 4" style="rhombus;whiteSpace=wrap;html=1;" vertex="1" parent="1">
          <mxGeometry x="570" y="520" width="60" height="50" as="geometry" />
        </mxCell>
        <mxCell id="67eRg82LhFTPB7yxBpyM-86" style="edgeStyle=orthogonalEdgeStyle;rounded=0;orthogonalLoop=1;jettySize=auto;html=1;exitX=1;exitY=0.5;exitDx=0;exitDy=0;entryX=0;entryY=0.5;entryDx=0;entryDy=0;" edge="1" parent="1" source="67eRg82LhFTPB7yxBpyM-72" target="67eRg82LhFTPB7yxBpyM-48">
          <mxGeometry relative="1" as="geometry" />
        </mxCell>
        <mxCell id="67eRg82LhFTPB7yxBpyM-72" value="cont = 5" style="rhombus;whiteSpace=wrap;html=1;" vertex="1" parent="1">
          <mxGeometry x="560" y="605" width="50" height="60" as="geometry" />
        </mxCell>
        <mxCell id="67eRg82LhFTPB7yxBpyM-87" style="edgeStyle=orthogonalEdgeStyle;rounded=0;orthogonalLoop=1;jettySize=auto;html=1;exitX=1;exitY=0.5;exitDx=0;exitDy=0;entryX=0;entryY=0.5;entryDx=0;entryDy=0;" edge="1" parent="1" source="67eRg82LhFTPB7yxBpyM-73" target="67eRg82LhFTPB7yxBpyM-49">
          <mxGeometry relative="1" as="geometry" />
        </mxCell>
        <mxCell id="67eRg82LhFTPB7yxBpyM-73" value="cont = 6" style="rhombus;whiteSpace=wrap;html=1;" vertex="1" parent="1">
          <mxGeometry x="545" y="720" width="50" height="50" as="geometry" />
        </mxCell>
        <mxCell id="67eRg82LhFTPB7yxBpyM-88" style="edgeStyle=orthogonalEdgeStyle;rounded=0;orthogonalLoop=1;jettySize=auto;html=1;exitX=1;exitY=0.5;exitDx=0;exitDy=0;entryX=0;entryY=0.5;entryDx=0;entryDy=0;" edge="1" parent="1" source="67eRg82LhFTPB7yxBpyM-74" target="67eRg82LhFTPB7yxBpyM-51">
          <mxGeometry relative="1" as="geometry" />
        </mxCell>
        <mxCell id="67eRg82LhFTPB7yxBpyM-74" value="cont = 7" style="rhombus;whiteSpace=wrap;html=1;" vertex="1" parent="1">
          <mxGeometry x="540" y="838" width="50" height="60" as="geometry" />
        </mxCell>
        <mxCell id="67eRg82LhFTPB7yxBpyM-89" style="edgeStyle=orthogonalEdgeStyle;rounded=0;orthogonalLoop=1;jettySize=auto;html=1;exitX=1;exitY=0.5;exitDx=0;exitDy=0;entryX=0;entryY=0.5;entryDx=0;entryDy=0;" edge="1" parent="1" source="67eRg82LhFTPB7yxBpyM-75" target="67eRg82LhFTPB7yxBpyM-52">
          <mxGeometry relative="1" as="geometry" />
        </mxCell>
        <mxCell id="67eRg82LhFTPB7yxBpyM-75" value="cont = 8" style="rhombus;whiteSpace=wrap;html=1;" vertex="1" parent="1">
          <mxGeometry x="535" y="940" width="55" height="70" as="geometry" />
        </mxCell>
        <mxCell id="67eRg82LhFTPB7yxBpyM-90" style="edgeStyle=orthogonalEdgeStyle;rounded=0;orthogonalLoop=1;jettySize=auto;html=1;exitX=1;exitY=0.5;exitDx=0;exitDy=0;entryX=0;entryY=0.5;entryDx=0;entryDy=0;" edge="1" parent="1" source="67eRg82LhFTPB7yxBpyM-76" target="67eRg82LhFTPB7yxBpyM-53">
          <mxGeometry relative="1" as="geometry" />
        </mxCell>
        <mxCell id="67eRg82LhFTPB7yxBpyM-76" value="cont = 9" style="rhombus;whiteSpace=wrap;html=1;" vertex="1" parent="1">
          <mxGeometry x="520" y="1047.5" width="70" height="70" as="geometry" />
        </mxCell>
        <mxCell id="67eRg82LhFTPB7yxBpyM-131" style="edgeStyle=orthogonalEdgeStyle;rounded=0;orthogonalLoop=1;jettySize=auto;html=1;exitX=0;exitY=0.75;exitDx=0;exitDy=0;" edge="1" parent="1" source="67eRg82LhFTPB7yxBpyM-91">
          <mxGeometry relative="1" as="geometry">
            <mxPoint x="20" y="610" as="targetPoint" />
          </mxGeometry>
        </mxCell>
        <mxCell id="67eRg82LhFTPB7yxBpyM-91" value="S3" style="shape=document;whiteSpace=wrap;html=1;boundedLbl=1;" vertex="1" parent="1">
          <mxGeometry x="40" y="590" width="50" height="40" as="geometry" />
        </mxCell>
        <mxCell id="67eRg82LhFTPB7yxBpyM-130" style="edgeStyle=orthogonalEdgeStyle;rounded=0;orthogonalLoop=1;jettySize=auto;html=1;exitX=0;exitY=0.5;exitDx=0;exitDy=0;" edge="1" parent="1" source="67eRg82LhFTPB7yxBpyM-92">
          <mxGeometry relative="1" as="geometry">
            <mxPoint x="20" y="695" as="targetPoint" />
          </mxGeometry>
        </mxCell>
        <mxCell id="67eRg82LhFTPB7yxBpyM-92" value="S4" style="shape=document;whiteSpace=wrap;html=1;boundedLbl=1;" vertex="1" parent="1">
          <mxGeometry x="40" y="675" width="50" height="40" as="geometry" />
        </mxCell>
        <mxCell id="67eRg82LhFTPB7yxBpyM-128" style="edgeStyle=orthogonalEdgeStyle;rounded=0;orthogonalLoop=1;jettySize=auto;html=1;exitX=0;exitY=0.5;exitDx=0;exitDy=0;" edge="1" parent="1" source="67eRg82LhFTPB7yxBpyM-93">
          <mxGeometry relative="1" as="geometry">
            <mxPoint x="20" y="796" as="targetPoint" />
          </mxGeometry>
        </mxCell>
        <mxCell id="67eRg82LhFTPB7yxBpyM-93" value="S5" style="shape=document;whiteSpace=wrap;html=1;boundedLbl=1;" vertex="1" parent="1">
          <mxGeometry x="50" y="780" width="50" height="32" as="geometry" />
        </mxCell>
        <mxCell id="67eRg82LhFTPB7yxBpyM-127" style="edgeStyle=orthogonalEdgeStyle;rounded=0;orthogonalLoop=1;jettySize=auto;html=1;exitX=0;exitY=0.5;exitDx=0;exitDy=0;" edge="1" parent="1" source="67eRg82LhFTPB7yxBpyM-94">
          <mxGeometry relative="1" as="geometry">
            <mxPoint x="20" y="868" as="targetPoint" />
          </mxGeometry>
        </mxCell>
        <mxCell id="67eRg82LhFTPB7yxBpyM-94" value="S6" style="shape=document;whiteSpace=wrap;html=1;boundedLbl=1;" vertex="1" parent="1">
          <mxGeometry x="40" y="848" width="50" height="40" as="geometry" />
        </mxCell>
        <mxCell id="67eRg82LhFTPB7yxBpyM-125" style="edgeStyle=orthogonalEdgeStyle;rounded=0;orthogonalLoop=1;jettySize=auto;html=1;exitX=0;exitY=0.5;exitDx=0;exitDy=0;" edge="1" parent="1" source="67eRg82LhFTPB7yxBpyM-96">
          <mxGeometry relative="1" as="geometry">
            <mxPoint x="20" y="1010" as="targetPoint" />
          </mxGeometry>
        </mxCell>
        <mxCell id="67eRg82LhFTPB7yxBpyM-96" value="S8" style="shape=document;whiteSpace=wrap;html=1;boundedLbl=1;" vertex="1" parent="1">
          <mxGeometry x="40" y="997.5" width="50" height="50" as="geometry" />
        </mxCell>
        <mxCell id="67eRg82LhFTPB7yxBpyM-124" style="edgeStyle=orthogonalEdgeStyle;rounded=0;orthogonalLoop=1;jettySize=auto;html=1;exitX=0;exitY=0.5;exitDx=0;exitDy=0;entryX=0.2;entryY=0.962;entryDx=0;entryDy=0;entryPerimeter=0;" edge="1" parent="1" source="67eRg82LhFTPB7yxBpyM-97" target="67eRg82LhFTPB7yxBpyM-17">
          <mxGeometry relative="1" as="geometry" />
        </mxCell>
        <mxCell id="67eRg82LhFTPB7yxBpyM-97" value="S9" style="shape=document;whiteSpace=wrap;html=1;boundedLbl=1;" vertex="1" parent="1">
          <mxGeometry x="50" y="1080" width="50" height="50" as="geometry" />
        </mxCell>
        <mxCell id="67eRg82LhFTPB7yxBpyM-126" style="edgeStyle=orthogonalEdgeStyle;rounded=0;orthogonalLoop=1;jettySize=auto;html=1;exitX=0;exitY=0.5;exitDx=0;exitDy=0;" edge="1" parent="1" source="67eRg82LhFTPB7yxBpyM-98">
          <mxGeometry relative="1" as="geometry">
            <mxPoint x="20" y="938" as="targetPoint" />
          </mxGeometry>
        </mxCell>
        <mxCell id="67eRg82LhFTPB7yxBpyM-98" value="S7" style="shape=document;whiteSpace=wrap;html=1;boundedLbl=1;" vertex="1" parent="1">
          <mxGeometry x="40" y="916" width="50" height="44" as="geometry" />
        </mxCell>
        <mxCell id="67eRg82LhFTPB7yxBpyM-108" style="edgeStyle=orthogonalEdgeStyle;rounded=0;orthogonalLoop=1;jettySize=auto;html=1;exitX=0.5;exitY=1;exitDx=0;exitDy=0;entryX=0.5;entryY=0;entryDx=0;entryDy=0;" edge="1" parent="1" source="67eRg82LhFTPB7yxBpyM-100" target="67eRg82LhFTPB7yxBpyM-101">
          <mxGeometry relative="1" as="geometry" />
        </mxCell>
        <mxCell id="67eRg82LhFTPB7yxBpyM-114" style="edgeStyle=orthogonalEdgeStyle;rounded=0;orthogonalLoop=1;jettySize=auto;html=1;exitX=0;exitY=0.5;exitDx=0;exitDy=0;entryX=1;entryY=0.25;entryDx=0;entryDy=0;" edge="1" parent="1" source="67eRg82LhFTPB7yxBpyM-100" target="67eRg82LhFTPB7yxBpyM-91">
          <mxGeometry relative="1" as="geometry" />
        </mxCell>
        <mxCell id="67eRg82LhFTPB7yxBpyM-100" value="TMP" style="rhombus;whiteSpace=wrap;html=1;" vertex="1" parent="1">
          <mxGeometry x="122.5" y="605" width="55" height="55" as="geometry" />
        </mxCell>
        <mxCell id="67eRg82LhFTPB7yxBpyM-109" style="edgeStyle=orthogonalEdgeStyle;rounded=0;orthogonalLoop=1;jettySize=auto;html=1;exitX=0.5;exitY=1;exitDx=0;exitDy=0;entryX=0.5;entryY=0;entryDx=0;entryDy=0;" edge="1" parent="1" source="67eRg82LhFTPB7yxBpyM-101" target="67eRg82LhFTPB7yxBpyM-102">
          <mxGeometry relative="1" as="geometry" />
        </mxCell>
        <mxCell id="67eRg82LhFTPB7yxBpyM-115" style="edgeStyle=orthogonalEdgeStyle;rounded=0;orthogonalLoop=1;jettySize=auto;html=1;exitX=0;exitY=0.5;exitDx=0;exitDy=0;entryX=1;entryY=0.5;entryDx=0;entryDy=0;" edge="1" parent="1" source="67eRg82LhFTPB7yxBpyM-101" target="67eRg82LhFTPB7yxBpyM-92">
          <mxGeometry relative="1" as="geometry" />
        </mxCell>
        <mxCell id="67eRg82LhFTPB7yxBpyM-101" value="TMP" style="rhombus;whiteSpace=wrap;html=1;" vertex="1" parent="1">
          <mxGeometry x="122.5" y="690" width="55" height="60" as="geometry" />
        </mxCell>
        <mxCell id="67eRg82LhFTPB7yxBpyM-110" style="edgeStyle=orthogonalEdgeStyle;rounded=0;orthogonalLoop=1;jettySize=auto;html=1;exitX=0.5;exitY=1;exitDx=0;exitDy=0;" edge="1" parent="1" source="67eRg82LhFTPB7yxBpyM-102" target="67eRg82LhFTPB7yxBpyM-103">
          <mxGeometry relative="1" as="geometry" />
        </mxCell>
        <mxCell id="67eRg82LhFTPB7yxBpyM-123" style="edgeStyle=orthogonalEdgeStyle;rounded=0;orthogonalLoop=1;jettySize=auto;html=1;exitX=0;exitY=0.5;exitDx=0;exitDy=0;entryX=1;entryY=0.25;entryDx=0;entryDy=0;" edge="1" parent="1" source="67eRg82LhFTPB7yxBpyM-102" target="67eRg82LhFTPB7yxBpyM-93">
          <mxGeometry relative="1" as="geometry" />
        </mxCell>
        <mxCell id="67eRg82LhFTPB7yxBpyM-102" value="TMP" style="rhombus;whiteSpace=wrap;html=1;" vertex="1" parent="1">
          <mxGeometry x="127.5" y="780" width="50" height="50" as="geometry" />
        </mxCell>
        <mxCell id="67eRg82LhFTPB7yxBpyM-111" style="edgeStyle=orthogonalEdgeStyle;rounded=0;orthogonalLoop=1;jettySize=auto;html=1;exitX=0.5;exitY=1;exitDx=0;exitDy=0;entryX=0.5;entryY=0;entryDx=0;entryDy=0;" edge="1" parent="1" source="67eRg82LhFTPB7yxBpyM-103" target="67eRg82LhFTPB7yxBpyM-104">
          <mxGeometry relative="1" as="geometry" />
        </mxCell>
        <mxCell id="67eRg82LhFTPB7yxBpyM-117" style="edgeStyle=orthogonalEdgeStyle;rounded=0;orthogonalLoop=1;jettySize=auto;html=1;exitX=0;exitY=0.5;exitDx=0;exitDy=0;entryX=1;entryY=0.25;entryDx=0;entryDy=0;" edge="1" parent="1" source="67eRg82LhFTPB7yxBpyM-103" target="67eRg82LhFTPB7yxBpyM-94">
          <mxGeometry relative="1" as="geometry" />
        </mxCell>
        <mxCell id="67eRg82LhFTPB7yxBpyM-103" value="TMP" style="rhombus;whiteSpace=wrap;html=1;" vertex="1" parent="1">
          <mxGeometry x="127.5" y="854" width="55" height="44" as="geometry" />
        </mxCell>
        <mxCell id="67eRg82LhFTPB7yxBpyM-112" style="edgeStyle=orthogonalEdgeStyle;rounded=0;orthogonalLoop=1;jettySize=auto;html=1;exitX=0.5;exitY=1;exitDx=0;exitDy=0;entryX=0.5;entryY=0;entryDx=0;entryDy=0;" edge="1" parent="1" source="67eRg82LhFTPB7yxBpyM-104" target="67eRg82LhFTPB7yxBpyM-105">
          <mxGeometry relative="1" as="geometry" />
        </mxCell>
        <mxCell id="67eRg82LhFTPB7yxBpyM-118" style="edgeStyle=orthogonalEdgeStyle;rounded=0;orthogonalLoop=1;jettySize=auto;html=1;exitX=0;exitY=0.5;exitDx=0;exitDy=0;entryX=1;entryY=0.5;entryDx=0;entryDy=0;" edge="1" parent="1" source="67eRg82LhFTPB7yxBpyM-104" target="67eRg82LhFTPB7yxBpyM-98">
          <mxGeometry relative="1" as="geometry" />
        </mxCell>
        <mxCell id="67eRg82LhFTPB7yxBpyM-104" value="TMP" style="rhombus;whiteSpace=wrap;html=1;" vertex="1" parent="1">
          <mxGeometry x="127.5" y="930" width="55" height="60" as="geometry" />
        </mxCell>
        <mxCell id="67eRg82LhFTPB7yxBpyM-113" style="edgeStyle=orthogonalEdgeStyle;rounded=0;orthogonalLoop=1;jettySize=auto;html=1;exitX=0.5;exitY=1;exitDx=0;exitDy=0;entryX=0.5;entryY=0;entryDx=0;entryDy=0;" edge="1" parent="1" source="67eRg82LhFTPB7yxBpyM-105" target="67eRg82LhFTPB7yxBpyM-106">
          <mxGeometry relative="1" as="geometry" />
        </mxCell>
        <mxCell id="67eRg82LhFTPB7yxBpyM-119" style="edgeStyle=orthogonalEdgeStyle;rounded=0;orthogonalLoop=1;jettySize=auto;html=1;exitX=0;exitY=0.5;exitDx=0;exitDy=0;entryX=1;entryY=0.5;entryDx=0;entryDy=0;" edge="1" parent="1" source="67eRg82LhFTPB7yxBpyM-105" target="67eRg82LhFTPB7yxBpyM-96">
          <mxGeometry relative="1" as="geometry" />
        </mxCell>
        <mxCell id="67eRg82LhFTPB7yxBpyM-105" value="TMP" style="rhombus;whiteSpace=wrap;html=1;" vertex="1" parent="1">
          <mxGeometry x="132.5" y="1010" width="50" height="60" as="geometry" />
        </mxCell>
        <mxCell id="67eRg82LhFTPB7yxBpyM-121" style="edgeStyle=orthogonalEdgeStyle;rounded=0;orthogonalLoop=1;jettySize=auto;html=1;exitX=0;exitY=0.5;exitDx=0;exitDy=0;" edge="1" parent="1" source="67eRg82LhFTPB7yxBpyM-106" target="67eRg82LhFTPB7yxBpyM-97">
          <mxGeometry relative="1" as="geometry" />
        </mxCell>
        <mxCell id="67eRg82LhFTPB7yxBpyM-136" style="edgeStyle=orthogonalEdgeStyle;rounded=0;orthogonalLoop=1;jettySize=auto;html=1;exitX=1;exitY=0.5;exitDx=0;exitDy=0;" edge="1" parent="1" source="67eRg82LhFTPB7yxBpyM-106">
          <mxGeometry relative="1" as="geometry">
            <mxPoint x="250" y="530" as="targetPoint" />
          </mxGeometry>
        </mxCell>
        <mxCell id="67eRg82LhFTPB7yxBpyM-106" value="TMP" style="rhombus;whiteSpace=wrap;html=1;" vertex="1" parent="1">
          <mxGeometry x="132.5" y="1080" width="50" height="50" as="geometry" />
        </mxCell>
      </root>
    </mxGraphModel>
  </diagram>
</mxfile>
